<?xml version="1.0" encoding="UTF-8" standalone="no"?>
<!-- Created with Inkscape (http://www.inkscape.org/) -->

<svg
   width="500"
   height="500"
   viewBox="0 0 132.29167 132.29167"
   version="1.1"
   id="svg12"
   inkscape:version="1.1.2 (b8e25be833, 2022-02-05)"
   sodipodi:docname="logo.svg"
   xmlns:inkscape="http://www.inkscape.org/namespaces/inkscape"
   xmlns:sodipodi="http://sodipodi.sourceforge.net/DTD/sodipodi-0.dtd"
   xmlns="http://www.w3.org/2000/svg"
   xmlns:svg="http://www.w3.org/2000/svg">
  <sodipodi:namedview
     id="namedview14"
     pagecolor="#505050"
     bordercolor="#eeeeee"
     borderopacity="1"
     inkscape:pageshadow="0"
     inkscape:pageopacity="0"
     inkscape:pagecheckerboard="0"
     inkscape:document-units="mm"
     showgrid="false"
     units="px"
     width="200px"
     inkscape:snap-global="false"
     inkscape:zoom="1.0973349"
     inkscape:cx="598.26768"
     inkscape:cy="344.47095"
     inkscape:window-width="1920"
     inkscape:window-height="1057"
     inkscape:window-x="-8"
     inkscape:window-y="-8"
     inkscape:window-maximized="1"
     inkscape:current-layer="layer1" />
  <defs
     id="defs9" />
  <g
     inkscape:label="Layer 1"
     inkscape:groupmode="layer"
     id="layer1">
    <circle
       id="path861"
       style="fill:#ffffff;stroke:#000000;stroke-width:0.264583"
       cx="49.307911"
       cy="63.895336"
       r="0.0080290539" />
    <circle
       id="path863"
       style="fill:#ffffff;stroke:#000000;stroke-width:0.264583"
       cx="49.307911"
       cy="63.895336"
       r="0.0080290539" />
    <g
       id="g2521"
       transform="matrix(3.6459702,0,0,3.5942349,-102.65212,-137.17936)"
       style="fill:#e2e3db">
      <g
         id="g2718"
         transform="translate(-3.1620852,-1.2460425)"
         style="fill:#e2e3db">
        <path
           style="fill:#e2e3db;stroke:#000000;stroke-width:0.264583px;stroke-linecap:butt;stroke-linejoin:miter;stroke-opacity:1"
           d="m 49.262701,63.880266 3.835228,-3.948247 11.309776,10.533687 c 0,0 1.145294,1.597385 0.48223,2.893375 -0.663065,1.29599 -1.386409,2.260449 -3.104348,2.441283 -1.717943,0.180835 -3.435882,-2.230307 -3.435882,-2.230307 z"
           id="path1116" />
        <path
           style="fill:#e2e3db;stroke:#000000;stroke-width:0.264583px;stroke-linecap:butt;stroke-linejoin:miter;stroke-opacity:1"
           d="M 33.203644,69.476177 51.531715,52.256314 c 0,0 1.534443,-2.642653 1.449197,-4.390213 -0.08525,-1.74756 1.150832,-4.262342 1.918055,-5.200057 0.76722,-0.937715 2.941015,-2.770521 5.62629,-2.557405 2.685277,0.213117 1.193456,0.895091 1.193456,0.895091 l -2.898391,2.941016 c 0,0 -1.150835,0.767223 -0.170495,1.704938 0.980339,0.937715 3.324627,3.282003 3.324627,3.282003 0,0 0.255741,0.724598 2.003301,-0.809845 1.747559,-1.534443 2.600028,-2.685275 2.600028,-2.685275 0,0 0.681974,-0.468857 0.767223,1.150832 0.08525,1.619689 -0.596728,3.921355 -0.596728,3.921355 0,0 -1.363951,2.173795 -2.898394,2.941016 -1.534443,0.767223 -2.770521,0.767223 -4.091847,0.937715 -1.321327,0.170495 -4.006601,0.852469 -4.347591,1.491821 -0.340987,0.63935 -16.239522,16.96412 -16.239522,16.96412 l -2.259041,2.386912 c 0,0 -2.173796,0.937715 -3.367252,0.170492 -1.193456,-0.76722 -2.301663,-2.045922 -1.619689,-4.006601 0,0 0.554105,-0.980337 0.767222,-1.236077 0.213117,-0.255741 0.51148,-0.681975 0.51148,-0.681975 z"
           id="path1445" />
        <ellipse
           style="fill:#e2e3db;stroke-width:0.324561"
           id="path1469"
           cx="35.292191"
           cy="72.651627"
           rx="1.7901837"
           ry="1.6836251" />
        <path
           style="fill:#e2e3db;stroke:#000000;stroke-width:0.264583px;stroke-linecap:butt;stroke-linejoin:miter;stroke-opacity:1"
           d="m 31.797072,43.390642 0.980339,-0.852469 c 0,0 1.918055,1.747563 1.960676,1.236081 0,0 -0.04262,1.449196 2.386913,3.026263 l 9.036165,8.780425 -1.321326,1.193455 -10.101751,-10.400114 c 0,0 -1.193455,-1.150833 -1.534443,-0.895092 z"
           id="path1653" />
        <path
           style="fill:#e2e3db;stroke:#000000;stroke-width:0.264583px;stroke-linecap:butt;stroke-linejoin:miter;stroke-opacity:1"
           d="m 39.426665,62.400687 c 0,0 -2.131171,-4.475459 0.980337,-8.695176 l -3.111508,-3.36725 c 0,0 -1.790184,-0.980339 -2.003301,0 l -1.150832,1.87543 c 0,0 -0.298364,0.298364 0.596727,0.937716 0.895092,0.639351 1.150833,1.193455 1.150833,1.193455 l -0.596728,2.301665 c 0,0 -2.429535,0.426234 -2.642652,1.193456 v 2.259041 c 0,0 -0.511481,0.511481 1.534443,0.724598 0,0 1.108209,-0.25574 1.321326,1.278703 l 0.426234,1.193456 c 0,0 0.08525,0.852468 -1.704937,1.49182 0,0 -0.511481,0.468857 0.511481,1.960677 z"
           id="path1786" />
        <path
           style="fill:#e2e3db;stroke:#000000;stroke-width:0.264583px;stroke-linecap:butt;stroke-linejoin:miter;stroke-opacity:1"
           d="m 39.767652,47.95135 3.154133,3.068886 c 0,0 3.963979,-2.600029 8.439438,-1.022964 0,0 1.108209,-1.278701 0.724598,-3.452496 0,0 -2.514782,0.298364 -1.918054,-2.344288 0,0 -2.472158,-1.534443 -3.750861,-0.12787 0,0 0.383611,1.87543 -1.150832,2.301665 0,0 -1.832808,0.980338 -2.514782,-0.767222 0,0 -2.216418,-1.49182 -3.409874,1.406573 z"
           id="path1919" />
        <path
           style="fill:#e2e3db;stroke:#000000;stroke-width:0.264583px;stroke-linecap:butt;stroke-linejoin:miter;stroke-opacity:1"
           d="m 57.285879,56.007174 c 0,0 1.108207,3.750863 -0.127871,6.308267 l 4.688576,4.304967 c 0,0 1.193456,-0.809845 0.08525,-2.003301 0,0 -1.918057,-0.426234 -1.236082,-2.088548 0,0 0.170494,-1.832807 1.321326,-1.662313 l 0.980339,-0.08525 c 0,0 2.173794,-0.895092 0.08525,-3.708238 0,0 -2.173798,0.255744 -2.131174,-1.022959 l -0.383611,-0.809845 z"
           id="path2052" />
        <path
           style="fill:#e2e3db;stroke:#000000;stroke-width:0.264583px;stroke-linecap:butt;stroke-linejoin:miter;stroke-opacity:1"
           d="m 55.794057,72.417193 -4.177093,-4.645954 c 0,0 -4.09185,1.449197 -6.350892,0.127871 l -4.475458,4.688577 c 0,0 0.895092,1.108209 1.577067,0.25574 l 0.767221,-1.150832 c 0,0 2.770523,-0.895092 3.068887,0.852468 l 0.213117,1.321326 c 0,0 2.173794,1.61969 3.708238,0.04262 l 0.08525,-1.406569 c 0,0 1.278699,-1.74756 2.941013,-0.852469 l 1.022962,1.23608 c 0,0 0.340984,0.767221 1.619688,-0.468858 z"
           id="path2413" />
      </g>
    </g>
    <g
       id="g2654"
       transform="matrix(0.26458333,0,0,0.26458333,97.884386,5.7787851)"
       style="fill:#ffaaaa" />
    <g
       id="g2656"
       transform="matrix(0.26458333,0,0,0.26458333,97.884386,5.7787851)"
       style="fill:#ffaaaa" />
    <g
       id="g2658"
       transform="matrix(0.26458333,0,0,0.26458333,97.884386,5.7787851)"
       style="fill:#ffaaaa" />
    <g
       id="g2660"
       transform="matrix(0.26458333,0,0,0.26458333,97.884386,5.7787851)"
       style="fill:#ffaaaa" />
    <g
       id="g2662"
       transform="matrix(0.26458333,0,0,0.26458333,97.884386,5.7787851)"
       style="fill:#ffaaaa" />
    <g
       id="g2664"
       transform="matrix(0.26458333,0,0,0.26458333,97.884386,5.7787851)"
       style="fill:#ffaaaa" />
    <g
       id="g2666"
       transform="matrix(0.26458333,0,0,0.26458333,97.884386,5.7787851)"
       style="fill:#ffaaaa" />
    <g
       id="g2668"
       transform="matrix(0.26458333,0,0,0.26458333,97.884386,5.7787851)"
       style="fill:#ffaaaa" />
    <g
       id="g2670"
       transform="matrix(0.26458333,0,0,0.26458333,97.884386,5.7787851)"
       style="fill:#ffaaaa" />
    <g
       id="g2672"
       transform="matrix(0.26458333,0,0,0.26458333,97.884386,5.7787851)"
       style="fill:#ffaaaa" />
    <g
       id="g2674"
       transform="matrix(0.26458333,0,0,0.26458333,97.884386,5.7787851)"
       style="fill:#ffaaaa" />
    <g
       id="g2676"
       transform="matrix(0.26458333,0,0,0.26458333,97.884386,5.7787851)"
       style="fill:#ffaaaa" />
    <g
       id="g2678"
       transform="matrix(0.26458333,0,0,0.26458333,97.884386,5.7787851)"
       style="fill:#ffaaaa" />
    <g
       id="g2680"
       transform="matrix(0.26458333,0,0,0.26458333,97.884386,5.7787851)"
       style="fill:#ffaaaa" />
    <g
       id="g2682"
       transform="matrix(0.26458333,0,0,0.26458333,97.884386,5.7787851)"
       style="fill:#ffaaaa" />
    <text
       xml:space="preserve"
       style="font-style:normal;font-weight:normal;font-size:18.491px;line-height:1.25;font-family:sans-serif;fill:#000000;fill-opacity:1;stroke:none;stroke-width:0.462275"
       x="-85.081345"
       y="102.1911"
       id="text4589"
       transform="matrix(0.72535809,-0.69086511,0.72737842,0.68584005,0,0)"><tspan
         sodipodi:role="line"
         id="tspan4587"
         style="stroke-width:0.462275"
         x="-85.081345"
         y="102.1911">SNAP STATUS</tspan></text>
  </g>
</svg>
